<svg width="899" height="319" viewBox="0 0 899 319" fill="none" xmlns="http://www.w3.org/2000/svg">
<g clip-path="url(#clip0_3_2)">
<path d="M369.741 297.375V114.732C369.741 81.1253 396.983 53.8826 430.589 53.8826L484.515 53.9639C518.023 54.0304 545.153 81.2132 545.153 114.723V153.599C545.153 187.205 517.908 214.448 484.303 214.448H408.102" stroke="#939598" stroke-width="11.2493" stroke-miterlimit="10" stroke-linecap="round" stroke-linejoin="round"/>
<path d="M560.222 53.8584H583.614C597.406 53.8584 608.585 65.0383 608.585 78.8303V215.265" stroke="#939598" stroke-width="11.2493" stroke-miterlimit="10" stroke-linecap="round" stroke-linejoin="round"/>
<path d="M603.57 32.721L592.962 22.1117C590.328 19.4797 590.328 15.2117 592.962 12.5797L603.563 1.977C606.2 -0.659 610.474 -0.659 613.108 1.977L623.71 12.5797C626.343 15.2117 626.343 19.4797 623.71 22.1117L613.102 32.721C610.47 35.353 606.203 35.353 603.57 32.721Z" fill="#32BCAD"/>
<path d="M653.463 53.7366H676.662C688.596 53.7366 700.042 58.478 708.479 66.9153L762.74 121.177C769.768 128.206 781.164 128.206 788.194 121.177L842.256 67.1139C850.695 58.6766 862.139 53.9353 874.074 53.9353H892.935" stroke="#939598" stroke-width="11.2493" stroke-miterlimit="10" stroke-linecap="round" stroke-linejoin="round"/>
<path d="M653.463 214.071H676.662C688.596 214.071 700.042 209.329 708.479 200.892L762.74 146.631C769.768 139.601 781.164 139.601 788.194 146.631L842.256 200.693C850.695 209.131 862.139 213.872 874.074 213.872H892.935" stroke="#939598" stroke-width="11.2493" stroke-miterlimit="10" stroke-linecap="round" stroke-linejoin="round"/>
<path d="M231.433 248.736C219.791 248.736 208.84 244.203 200.607 235.973L156.096 191.461C152.971 188.328 147.524 188.337 144.4 191.461L99.7266 236.136C91.4932 244.365 80.5425 248.899 68.8998 248.899H60.1281L116.503 305.272C134.108 322.877 162.653 322.877 180.26 305.272L236.795 248.736H231.433Z" fill="#32BCAD"/>
<path d="M68.8992 91.2926C80.5419 91.2926 91.4927 95.8259 99.726 104.055L144.399 148.737C147.617 151.955 152.87 151.967 156.095 148.733L200.606 104.218C208.839 95.9888 219.79 91.4555 231.433 91.4555H236.794L180.261 34.9208C162.653 17.3141 134.107 17.3141 116.502 34.9208L60.13 91.2928L68.8992 91.2926Z" fill="#32BCAD"/>
<path d="M283.557 138.217L249.393 104.053C248.641 104.354 247.826 104.542 246.966 104.542H231.433C223.402 104.542 215.541 107.8 209.866 113.478L165.357 157.989C161.192 162.154 155.718 164.238 150.25 164.238C144.777 164.238 139.308 162.154 135.144 157.993L90.4662 113.316C84.7915 107.636 76.9302 104.38 68.8995 104.38H49.7996C48.9849 104.38 48.2236 104.188 47.5049 103.917L13.205 138.217C-4.40167 155.824 -4.40167 184.368 13.205 201.975L47.5036 236.273C48.2236 236.003 48.9849 235.811 49.7996 235.811H68.8995C76.9302 235.811 84.7915 232.555 90.4662 226.876L135.14 182.202C143.214 174.134 157.29 174.132 165.357 182.206L209.866 226.713C215.541 232.392 223.402 235.649 231.433 235.649H246.966C247.826 235.649 248.641 235.837 249.393 236.138L283.557 201.974C301.162 184.368 301.162 155.824 283.557 138.217Z" fill="#32BCAD"/>
<path d="M416.114 281.849C413.593 281.849 410.658 282.456 407.756 283.125V294.255C409.766 294.989 412.062 295.343 414.264 295.343C419.845 295.343 422.492 293.46 422.492 288.544C422.492 283.923 420.324 281.849 416.114 281.849ZM405.873 302.519V280.508H407.405L407.565 281.467C410.147 280.86 413.719 280.063 416.271 280.063C418.347 280.063 420.324 280.379 421.981 281.72C423.897 283.285 424.502 285.803 424.502 288.544C424.502 291.42 423.543 294.129 420.929 295.627C419.111 296.648 416.655 297.063 414.454 297.063C412.189 297.063 410.021 296.711 407.756 296.043V302.519H405.873Z" fill="#939598"/>
<path d="M438.515 281.783C432.932 281.783 430.444 283.539 430.444 288.451C430.444 293.203 432.9 295.342 438.515 295.342C444.064 295.342 446.553 293.618 446.553 288.706C446.553 283.954 444.098 281.783 438.515 281.783ZM445.691 295.342C443.841 296.679 441.354 297.063 438.515 297.063C435.612 297.063 433.123 296.648 431.306 295.342C429.264 293.907 428.434 291.544 428.434 288.58C428.434 285.643 429.264 283.254 431.306 281.783C433.123 280.478 435.612 280.062 438.515 280.062C441.384 280.062 443.841 280.478 445.691 281.783C447.766 283.254 448.562 285.643 448.562 288.544C448.562 291.514 447.733 293.907 445.691 295.342Z" fill="#939598"/>
<path d="M472.114 296.617L465.894 283.254H465.765L459.642 296.617H457.952L451.317 280.508H453.39L458.909 294.032H459.037L465.032 280.508H466.755L472.912 294.032H473.04L478.431 280.508H480.439L473.805 296.617H472.114Z" fill="#939598"/>
<path d="M492.471 281.752C487.304 281.752 485.55 284.048 485.23 287.368H499.712C499.554 283.7 497.67 281.752 492.471 281.752ZM492.408 297.062C489.312 297.062 487.304 296.617 485.71 295.276C483.827 293.649 483.188 291.29 483.188 288.58C483.188 285.996 484.051 283.253 486.188 281.689C487.974 280.446 490.175 280.062 492.471 280.062C494.546 280.062 496.938 280.285 498.914 281.626C501.243 283.188 501.691 285.933 501.691 289.057H485.167C485.23 292.373 486.315 295.31 492.566 295.31C495.534 295.31 498.308 294.83 500.892 294.384V296.073C498.212 296.554 495.246 297.062 492.408 297.062Z" fill="#939598"/>
<path d="M507.091 296.617V280.508H508.622L508.783 281.466C512.195 280.606 513.79 280.062 516.788 280.062H517.012V281.849H516.564C514.046 281.849 512.515 282.198 508.975 283.125V296.617H507.091Z" fill="#939598"/>
<path d="M527.942 281.752C522.776 281.752 521.021 284.048 520.701 287.368H535.184C535.025 283.7 533.141 281.752 527.942 281.752ZM527.88 297.062C524.784 297.062 522.776 296.617 521.181 295.276C519.297 293.649 518.66 291.29 518.66 288.58C518.66 285.996 519.522 283.253 521.66 281.689C523.445 280.446 525.646 280.062 527.942 280.062C530.017 280.062 532.409 280.285 534.385 281.626C536.714 283.188 537.162 285.933 537.162 289.057H520.638C520.701 292.373 521.786 295.31 528.037 295.31C531.004 295.31 533.778 294.83 536.364 294.384V296.073C533.684 296.554 530.717 297.062 527.88 297.062Z" fill="#939598"/>
<path d="M557.778 282.87C555.769 282.135 553.473 281.783 551.272 281.783C545.69 281.783 543.041 283.669 543.041 288.579C543.041 293.234 545.21 295.275 549.42 295.275C551.941 295.275 554.876 294.669 557.778 294.031V282.87ZM558.13 296.617L557.97 295.658C555.386 296.265 551.813 297.063 549.261 297.063C547.19 297.063 545.21 296.777 543.552 295.405C541.638 293.841 541.032 291.321 541.032 288.579C541.032 285.709 541.989 282.995 544.604 281.529C546.422 280.477 548.878 280.062 551.112 280.062C553.345 280.062 555.514 280.446 557.778 281.083V273.715H559.661V296.617H558.13Z" fill="#939598"/>
<path d="M587.256 281.849C584.735 281.849 581.8 282.456 578.897 283.125V294.224C580.94 294.989 583.204 295.343 585.405 295.343C590.987 295.343 593.633 293.46 593.633 288.544C593.633 283.923 591.465 281.849 587.256 281.849ZM592.072 295.627C590.253 296.648 587.797 297.063 585.596 297.063C583.204 297.063 580.812 296.648 578.388 295.851L578.292 296.617H577.015V273.715H578.897V281.4C581.481 280.829 584.957 280.063 587.413 280.063C589.489 280.063 591.465 280.379 593.123 281.72C595.038 283.285 595.644 285.803 595.644 288.544C595.644 291.42 594.685 294.129 592.072 295.627Z" fill="#939598"/>
<path d="M598.142 302.804V301.052C599.066 301.145 599.929 301.212 600.535 301.212C602.864 301.212 604.266 300.54 605.574 297.892L606.18 296.617L597.76 280.508H599.929L607.139 294.414H607.265L614.123 280.508H616.26L607.202 298.596C605.543 301.881 603.756 302.964 600.471 302.964C599.736 302.964 598.94 302.901 598.142 302.804Z" fill="#939598"/>
<path d="M642.199 287.43H635.948V293.078H642.23C646.536 293.078 648.164 292.597 648.164 290.238C648.164 287.715 645.932 287.43 642.199 287.43ZM641.052 278.275H635.948V284.015H641.083C645.326 284.015 647.015 283.507 647.015 281.114C647.015 278.565 644.879 278.275 641.052 278.275ZM650.748 295.087C648.45 296.554 645.675 296.617 640.604 296.617H631.067V274.767H640.382C644.751 274.767 647.43 274.83 649.663 276.171C651.259 277.129 651.895 278.595 651.895 280.509C651.895 282.803 650.94 284.337 648.45 285.358V285.483C651.259 286.125 653.076 287.559 653.076 290.653C653.076 292.757 652.311 294.129 650.748 295.087Z" fill="#939598"/>
<path d="M672.158 289.855C670.275 289.694 668.362 289.6 666.353 289.6C663.068 289.6 661.917 290.27 661.917 291.767C661.917 293.171 662.876 293.938 665.394 293.938C667.5 293.938 670.02 293.46 672.158 292.979V289.855ZM673.114 296.617L672.986 295.659C670.242 296.331 667.054 297.063 664.246 297.063C662.522 297.063 660.674 296.839 659.365 295.882C658.156 295.022 657.58 293.618 657.58 291.991C657.58 290.171 658.378 288.482 660.29 287.622C661.981 286.825 664.246 286.762 666.321 286.762C668.01 286.762 670.274 286.855 672.158 286.984V286.695C672.158 284.177 670.498 283.347 665.969 283.347C664.214 283.347 662.077 283.441 660.036 283.633V280.379C662.3 280.191 664.853 280.062 666.958 280.062C669.764 280.062 672.669 280.286 674.454 281.56C676.302 282.87 676.656 284.688 676.656 287.078V296.616L673.114 296.617Z" fill="#939598"/>
<path d="M697.686 296.617V287.716C697.686 284.784 696.188 283.73 693.507 283.73C691.531 283.73 689.043 284.24 686.937 284.752V296.617H682.439V280.508H686.107L686.267 281.529C689.104 280.797 692.264 280.062 694.88 280.062C696.856 280.062 698.867 280.348 700.398 281.721C701.672 282.87 702.152 284.462 702.152 286.761V296.617H697.686Z" fill="#939598"/>
<path d="M714.859 297.063C712.786 297.063 710.519 296.777 708.862 295.373C706.884 293.777 706.31 291.259 706.31 288.544C706.31 285.995 707.139 283.219 709.595 281.657C711.606 280.348 714.092 280.063 716.676 280.063C718.527 280.063 720.346 280.191 722.354 280.379V283.824C720.726 283.668 718.78 283.539 717.219 283.539C712.943 283.539 710.935 284.88 710.935 288.58C710.935 292.057 712.434 293.555 715.942 293.555C717.983 293.555 720.378 293.172 722.706 292.725V296.041C720.184 296.555 717.442 297.063 714.859 297.063Z" fill="#939598"/>
<path d="M735.991 283.441C731.716 283.441 729.833 284.782 729.833 288.45C729.833 292.12 731.684 293.684 735.991 293.684C740.232 293.684 742.081 292.373 742.081 288.705C742.081 285.037 740.265 283.441 735.991 283.441ZM743.709 295.373C741.732 296.71 739.148 297.062 735.991 297.062C732.768 297.062 730.185 296.68 728.24 295.373C726.006 293.906 725.208 291.482 725.208 288.58C725.208 285.674 726.006 283.218 728.24 281.752C730.185 280.445 732.768 280.062 735.991 280.062C739.181 280.062 741.732 280.445 743.709 281.752C745.942 283.218 746.708 285.674 746.708 288.545C746.708 291.45 745.91 293.906 743.709 295.373Z" fill="#939598"/>
<path d="M772.674 297.063C769.965 297.063 767.03 296.617 764.827 294.799C762.213 292.628 761.415 289.28 761.415 285.673C761.415 282.455 762.435 278.627 765.849 276.395C768.495 274.673 771.781 274.321 775.098 274.321C777.525 274.321 780.011 274.481 782.723 274.704V278.627C780.394 278.435 777.525 278.275 775.291 278.275C769.07 278.275 766.423 280.638 766.423 285.674C766.423 290.814 768.878 293.11 773.473 293.11C776.47 293.11 779.819 292.503 783.201 291.799V295.69C779.819 296.363 776.278 297.063 772.674 297.063Z" fill="#939598"/>
<path d="M796.418 282.933C792.684 282.933 791.248 284.274 790.962 286.73H801.808C801.679 284.114 800.148 282.933 796.418 282.933ZM795.746 297.063C793.099 297.063 790.707 296.746 788.92 295.275C787.007 293.683 786.336 291.29 786.336 288.545C786.336 286.089 787.135 283.347 789.368 281.751C791.344 280.349 793.866 280.062 796.418 280.062C798.714 280.062 801.426 280.317 803.402 281.689C805.987 283.507 806.21 286.315 806.24 289.631H790.931C791.025 292.089 792.334 293.683 796.863 293.683C799.67 293.683 802.795 293.269 805.444 292.854V296.011C802.35 296.523 798.968 297.063 795.746 297.063Z" fill="#939598"/>
<path d="M826.251 296.617V287.716C826.251 284.784 824.754 283.73 822.072 283.73C820.095 283.73 817.608 284.24 815.502 284.752V296.617H811.004V280.508H814.672L814.832 281.529C817.67 280.797 820.83 280.062 823.446 280.062C825.422 280.062 827.432 280.348 828.963 281.721C830.237 282.87 830.718 284.462 830.718 286.761V296.617H826.251Z" fill="#939598"/>
<path d="M843.519 297.063C841.351 297.063 839.372 296.456 838.288 294.767C837.491 293.617 837.107 292.057 837.107 289.887V283.856H833.854V280.508H837.107L837.587 275.627H841.574V280.508H847.921V283.856H841.574V289.025C841.574 290.269 841.668 291.321 842.019 292.088C842.498 293.172 843.55 293.585 844.954 293.585C846.006 293.585 847.283 293.426 848.175 293.269V296.488C846.709 296.778 845.016 297.063 843.519 297.063Z" fill="#939598"/>
<path d="M852.308 296.617V280.508H855.977L856.137 281.529C859.104 280.7 861.304 280.062 864.112 280.062C864.239 280.062 864.431 280.062 864.684 280.092V283.922C864.174 283.892 863.568 283.892 863.122 283.892C860.92 283.892 859.263 284.145 856.805 284.721V296.617L852.308 296.617Z" fill="#939598"/>
<path d="M881.036 289.855C879.153 289.694 877.24 289.6 875.231 289.6C871.945 289.6 870.795 290.27 870.795 291.767C870.795 293.171 871.753 293.938 874.272 293.938C876.379 293.938 878.897 293.46 881.036 292.979V289.855ZM881.992 296.617L881.865 295.659C879.121 296.331 875.932 297.063 873.124 297.063C871.402 297.063 869.552 296.839 868.243 295.882C867.033 295.022 866.457 293.618 866.457 291.991C866.457 290.171 867.256 288.482 869.17 287.622C870.86 286.825 873.124 286.762 875.199 286.762C876.889 286.762 879.154 286.855 881.036 286.984V286.695C881.036 284.177 879.376 283.347 874.847 283.347C873.093 283.347 870.955 283.441 868.913 283.633V280.379C871.178 280.191 873.731 280.062 875.837 280.062C878.643 280.062 881.547 280.286 883.332 281.56C885.181 282.87 885.533 284.688 885.533 287.078V296.616L881.992 296.617Z" fill="#939598"/>
<path d="M891.318 273.715H895.815V296.617H891.318V273.715Z" fill="#939598"/>
</g>
<defs>
<clipPath id="clip0_3_2">
<rect width="898.64" height="318.476" fill="white"/>
</clipPath>
</defs>
</svg>
