<?xml version="1.0" encoding="UTF-8"?>
<svg id="Layer_1" data-name="Layer 1" xmlns="http://www.w3.org/2000/svg" xmlns:xlink="http://www.w3.org/1999/xlink" viewBox="0 0 521.84 535.36">
  <defs>
    <style>
      .cls-1 {
        fill: url(#linear-gradient);
      }
    </style>
    <linearGradient id="linear-gradient" x1="0" y1="267.68" x2="521.84" y2="267.68" gradientUnits="userSpaceOnUse">
      <stop offset="0" stop-color="#f40033"/>
      <stop offset=".76" stop-color="#452fd4"/>
    </linearGradient>
  </defs>
  <path class="cls-1" d="M518.61,370.28c-40.9,96.99-136.71,165.08-248.6,165.08-84.38,0-159.68-38.74-209.21-99.35C24.23,392.61,2.08,336.79.13,274.29c-.04-.04-.07-.07-.12-.12-.03-2.18.03-4.33.05-6.49-.02-2.16-.08-4.31-.05-6.49.05-.05.08-.08.12-.12,1.95-62.5,24.1-118.31,60.68-161.71C110.33,38.74,185.63,0,270.01,0c111.89,0,207.69,68.09,248.6,165.08,12.4,29.39-12.72,61.22-44,54.94-136.7-27.43-195.86-137-195.86-137-7.31-13.55-15.17-6.08-18.97,3.26-7.25,17.85-10.68,41.09-17.03,59.85-15.46,45.68-50.65,80.87-96.34,96.34-19.32,6.54-44.62,10.14-62.53,17.99-.34.15-.6.37-.92.55-1.31.76-2.37,1.74-3.16,2.88,0,.01-.01.03-.02.04-.78,1.13-1.31,2.41-1.58,3.75.26,1.34.8,2.61,1.58,3.75,0,.01.01.03.02.04.79,1.14,1.84,2.12,3.16,2.88.31.18.57.4.92.55,17.92,7.85,43.21,11.45,62.53,17.99,45.68,15.47,80.88,50.66,96.34,96.34,6.35,18.76,9.78,42,17.03,59.85,3.8,9.34,11.66,16.81,18.97,3.26,0,0,59.16-109.57,195.86-137,31.27-6.28,56.39,25.55,44,54.94Z"/>
</svg>