<?xml version="1.0" encoding="UTF-8"?>
<svg id="Layer_1" data-name="Layer 1" xmlns="http://www.w3.org/2000/svg" xmlns:xlink="http://www.w3.org/1999/xlink" viewBox="0 0 826.75 234.94">
  <defs>
    <style>
      .cls-1 {
        fill: url(#linear-gradient);
      }
    </style>
    <linearGradient id="linear-gradient" x1="0" y1="117.47" x2="826.75" y2="117.47" gradientUnits="userSpaceOnUse">
      <stop offset="0" stop-color="#f40033"/>
      <stop offset=".76" stop-color="#452fd4"/>
    </linearGradient>
  </defs>
  <path class="cls-1" d="M227.59,162.5c-17.95,42.56-59.99,72.44-109.09,72.44-37.03,0-70.07-17-91.81-43.6C10.63,172.29.91,147.8.06,120.37c-.02-.02-.03-.03-.05-.05-.01-.96.01-1.9.02-2.85,0-.95-.04-1.89-.02-2.85.02-.02.04-.04.05-.05.85-27.43,10.58-51.92,26.63-70.97C48.42,17,81.46,0,118.49,0c49.1,0,91.14,29.88,109.09,72.44,5.44,12.9-5.58,26.86-19.31,24.11-59.99-12.04-85.95-60.12-85.95-60.12-3.21-5.95-6.66-2.67-8.32,1.43-3.18,7.83-4.69,18.03-7.47,26.27-6.78,20.05-22.23,35.49-42.28,42.28-8.48,2.87-19.58,4.45-27.44,7.9-.15.07-.27.16-.4.24-.58.33-1.04.77-1.39,1.26,0,0,0,.01-.01.02-.34.5-.58,1.06-.69,1.64.12.59.35,1.15.69,1.64,0,0,0,.01.01.02.35.5.81.93,1.39,1.26.14.08.25.18.4.24,7.86,3.44,18.96,5.03,27.44,7.9,20.05,6.79,35.49,22.23,42.28,42.28,2.79,8.23,4.29,18.43,7.47,26.27,1.67,4.1,5.12,7.38,8.32,1.43,0,0,25.96-48.08,85.95-60.12,13.72-2.75,24.75,11.21,19.31,24.11ZM717.31,229.84h50.49V52.65h58.95V5.1h-168.39v47.55h58.95v177.19ZM399.73,93.04h-90.22V5.1h-50.49v224.74h50.49v-89.25h90.22v89.25h50.49V5.1h-50.49v87.94ZM686.69,229.84h-55.37l-13.68-39.42h-91.52l-14.01,39.42h-54.07L542.4,5.1h59.61l84.69,224.74ZM601.02,143.86l-29.31-83.06-29.31,83.06h58.62Z"/>
</svg>