<svg width="32" height="32" viewBox="0 0 32 32" fill="none" xmlns="http://www.w3.org/2000/svg">
<g clip-path="url(#clip0_59_604)">
<path d="M4.75341 13.4748V13.4307H4.75683C4.76707 13.2338 4.84896 13.037 5.00251 12.8877L15.396 2.83223C15.7304 2.50644 16.273 2.50644 16.6108 2.83223L26.9975 12.8877C27.1545 13.037 27.2329 13.2338 27.2432 13.4307H27.25V13.4748V24.2327C27.25 24.7044 26.8644 25.0879 26.3901 25.0879H19.9445C19.4702 25.0879 19.0846 24.7044 19.0846 24.2327V18.6603C19.0846 16.9668 17.7027 15.5924 16 15.5924C14.2973 15.5924 12.9495 16.9363 12.9188 18.6026V24.2327C12.9188 24.7044 12.5332 25.0879 12.0589 25.0879H5.61329C5.13899 25.0879 4.75341 24.7044 4.75341 24.2327V13.4748Z" fill="#0A1014"/>
</g>
<defs>
<clipPath id="clip0_59_604">
<rect width="22.5" height="22.5" fill="white" transform="matrix(-1 0 0 1 27.25 2.58789)"/>
</clipPath>
</defs>
</svg>
