<svg width="32" height="32" viewBox="0 0 32 32" fill="none" xmlns="http://www.w3.org/2000/svg">
<path d="M19.509 17.9223L14.3399 14.7676C14.0013 14.5465 13.5314 14.6225 13.293 14.9438C13.2031 15.0682 13.1582 15.2064 13.1582 15.3481H13.1548V21.4052C13.1548 21.7956 13.4934 22.1135 13.908 22.1135C14.0912 22.1135 14.257 22.0548 14.3849 21.9546L19.5298 19.104C19.8718 18.8828 19.9582 18.444 19.7233 18.1227C19.6645 18.0432 19.5885 17.9775 19.5056 17.9257L19.509 17.9223Z" fill="#0A1014"/>
<path d="M20.6009 4.60278H11.3995C7.65057 4.60278 4.60303 7.65379 4.60303 11.3993V20.6007C4.60303 24.3497 7.65402 27.3972 11.3995 27.3972H20.6009C24.3499 27.3972 27.3974 24.3462 27.3974 20.6007V11.3993C27.3974 7.65034 24.3464 4.60278 20.6009 4.60278ZM25.0755 9.88589H21.0812L19.281 6.6725H20.6009C22.6775 6.6725 24.4397 8.02005 25.072 9.88589H25.0755ZM14.492 9.88589L12.6918 6.6725H16.9038L18.704 9.88589H14.492ZM10.3802 6.78997L12.1148 9.88935H6.92842C7.45362 8.34139 8.75971 7.14932 10.3802 6.78997ZM20.6009 25.324H11.3995C8.79426 25.324 6.67619 23.206 6.67619 20.6007V11.9591H25.3277V20.6007C25.3277 23.206 23.2097 25.324 20.6044 25.324H20.6009Z" fill="#0A1014"/>
</svg>
