<svg width="32" height="32" viewBox="0 0 32 32" fill="none" xmlns="http://www.w3.org/2000/svg">
<path d="M26.9521 25.5162L22.0119 20.6014C23.402 18.9269 24.2367 16.7813 24.2367 14.4425C24.2367 9.10053 19.8655 4.75171 14.4926 4.75171C9.11976 4.75171 4.75195 9.10053 4.75195 14.4425C4.75195 19.7845 9.12317 24.1333 14.4926 24.1333C16.7822 24.1333 18.8877 23.3435 20.5503 22.0216L25.5041 26.95C25.7052 27.15 25.9641 27.2483 26.2264 27.2483C26.4888 27.2483 26.7511 27.15 26.9487 26.95C27.3473 26.5535 27.3473 25.9094 26.9487 25.5129L26.9521 25.5162ZM6.79617 14.4425C6.79617 10.2191 10.2475 6.78545 14.4926 6.78545C18.7378 6.78545 22.1891 10.2225 22.1891 14.4425C22.1891 18.6625 18.7344 22.0996 14.4926 22.0996C10.2509 22.0996 6.79617 18.6659 6.79617 14.4425Z" fill="#0A1014"/>
</svg>
