<svg width="37" height="22" viewBox="0 0 37 22" fill="none" xmlns="http://www.w3.org/2000/svg">
<path d="M5.7666 5.72314C6.40853 5.72314 7.01725 5.84212 7.59277 6.08008C8.16829 6.3125 8.67741 6.67773 9.12012 7.17578C9.56836 7.66829 9.91976 8.30192 10.1743 9.07666C10.4289 9.84587 10.5562 10.7728 10.5562 11.8574V11.874C10.5562 13.2188 10.3625 14.3698 9.9751 15.3271C9.58773 16.2845 9.03158 17.0205 8.30664 17.5352C7.58724 18.0443 6.72673 18.2988 5.7251 18.2988C4.9891 18.2988 4.32503 18.166 3.73291 17.9004C3.14632 17.6292 2.65934 17.2585 2.27197 16.7881C1.89014 16.3122 1.63281 15.7699 1.5 15.1611L1.4834 15.0698H3.5835L3.6167 15.1528C3.72184 15.4295 3.87126 15.673 4.06494 15.8833C4.26416 16.0936 4.50212 16.2568 4.77881 16.373C5.06104 16.4837 5.37646 16.5391 5.7251 16.5391C6.35596 16.5391 6.87061 16.3537 7.26904 15.9829C7.67301 15.6066 7.97461 15.1058 8.17383 14.4805C8.37858 13.8496 8.49479 13.1523 8.52246 12.3887C8.52799 12.3057 8.53076 12.2254 8.53076 12.1479C8.53076 12.0649 8.53076 11.9847 8.53076 11.9072L8.15723 9.90674C8.15723 9.45296 8.05208 9.04069 7.8418 8.66992C7.63151 8.29915 7.34652 8.00586 6.98682 7.79004C6.63265 7.57422 6.23145 7.46631 5.7832 7.46631C5.35156 7.46631 4.95589 7.57145 4.59619 7.78174C4.23649 7.99202 3.94873 8.27979 3.73291 8.64502C3.51709 9.00472 3.40918 9.40869 3.40918 9.85693V9.87354C3.40918 10.3384 3.51156 10.7507 3.71631 11.1104C3.92106 11.4645 4.20052 11.744 4.55469 11.9487C4.90885 12.1535 5.31283 12.2559 5.7666 12.2559C6.22038 12.2559 6.62712 12.1562 6.98682 11.957C7.34652 11.7578 7.63151 11.4811 7.8418 11.127C8.05208 10.7728 8.15723 10.3716 8.15723 9.92334V9.90674H8.65527V12.1147H8.36475C8.22087 12.4302 8.00781 12.7235 7.72559 12.9946C7.44336 13.2658 7.09473 13.4844 6.67969 13.6504C6.27018 13.8164 5.78874 13.8994 5.23535 13.8994C4.47168 13.8994 3.79655 13.7279 3.20996 13.3848C2.62337 13.0417 2.1613 12.5713 1.82373 11.9736C1.4917 11.376 1.32568 10.7008 1.32568 9.94824V9.93164C1.32568 9.11816 1.51383 8.396 1.89014 7.76514C2.27197 7.12874 2.79769 6.6307 3.46729 6.271C4.14242 5.90576 4.90885 5.72314 5.7666 5.72314ZM14.3247 16.3896C13.9484 16.3896 13.633 16.2651 13.3784 16.0161C13.1294 15.7616 13.0049 15.4517 13.0049 15.0864C13.0049 14.7157 13.1294 14.4058 13.3784 14.1567C13.633 13.9022 13.9484 13.7749 14.3247 13.7749C14.7065 13.7749 15.022 13.9022 15.271 14.1567C15.52 14.4058 15.6445 14.7157 15.6445 15.0864C15.6445 15.4517 15.52 15.7616 15.271 16.0161C15.022 16.2651 14.7065 16.3896 14.3247 16.3896ZM14.3247 10.2305C13.9484 10.2305 13.633 10.106 13.3784 9.85693C13.1294 9.60238 13.0049 9.29248 13.0049 8.92725C13.0049 8.55648 13.1294 8.24658 13.3784 7.99756C13.633 7.743 13.9484 7.61572 14.3247 7.61572C14.7065 7.61572 15.022 7.743 15.271 7.99756C15.52 8.24658 15.6445 8.55648 15.6445 8.92725C15.6445 9.29248 15.52 9.60238 15.271 9.85693C15.022 10.106 14.7065 10.2305 14.3247 10.2305ZM23.9038 18V15.7007H18.0435V13.9492C18.3589 13.4124 18.6743 12.8729 18.9897 12.3306C19.3107 11.7882 19.6344 11.2487 19.9609 10.7119C20.293 10.1696 20.6222 9.63558 20.9487 9.10986C21.2808 8.57861 21.61 8.05566 21.9365 7.54102C22.2686 7.02083 22.6006 6.51449 22.9326 6.02197H25.9458V13.9326H27.5645V15.7007H25.9458V18H23.9038ZM20.0356 13.9824H23.937V7.73193H23.8125C23.569 8.10824 23.3172 8.49561 23.0571 8.89404C22.8026 9.29248 22.5452 9.69922 22.2852 10.1143C22.0251 10.5293 21.7677 10.9471 21.5132 11.3677C21.2586 11.7827 21.0068 12.2005 20.7578 12.6211C20.5088 13.0361 20.2681 13.4484 20.0356 13.8579V13.9824ZM32.52 18V8.13037H32.3706L29.3906 10.2305V8.22168L32.52 6.02197H34.6533V18H32.52Z" fill="black"/>
</svg>
