<svg class="p-CardCvcIcons-svg" width="24" height="24" viewBox="0 0 24 24" xmlns="http://www.w3.org/2000/svg"
     fill="var(--colorIconCardCvc)" role="presentation">
  <path opacity=".2" fill-rule="evenodd" clip-rule="evenodd"
        d="M1 6a2 2 0 012-2h18a2 2 0 012 2v1.337a5.5 5.5 0 100 6.326V18a2 2 0 01-2 2H3a2 2 0 01-2-2V6zm2 3a1 1 0 011-1h5a1 1 0 011 1v3a1 1 0 01-1 1H4a1 1 0 01-1-1V9z"></path>
  <path opacity=".4" fill-rule="evenodd" clip-rule="evenodd"
        d="M3 16a1 1 0 011-1h1.5a1 1 0 110 2H4a1 1 0 01-1-1zm5 0a1 1 0 011-1h6a1 1 0 110 2H9a1 1 0 01-1-1zm10.5-1a1 1 0 100 2H20a1 1 0 100-2h-1.5z"></path>
  <path fill-rule="evenodd" clip-rule="evenodd"
        d="M18.5 16a5.5 5.5 0 110-11 5.5 5.5 0 010 11zm-2.184-7.779h-.621l-1.516.77v.786l1.202-.628v3.63h.943V8.22h-.008zm1.807.629c.448 0 .762.251.762.613 0 .393-.37.668-.904.668h-.235v.668h.283c.565 0 .95.282.95.691 0 .393-.377.66-.911.66-.393 0-.786-.126-1.194-.37v.786c.44.189.88.291 1.312.291 1.029 0 1.736-.526 1.736-1.288 0-.535-.33-.967-.88-1.14.472-.157.778-.573.778-1.045 0-.738-.652-1.241-1.595-1.241a3.143 3.143 0 00-1.234.267v.77c.378-.212.763-.33 1.132-.33zm3.394 1.713c.574 0 .974.338.974.778 0 .463-.4.785-.974.785-.346 0-.707-.11-1.076-.337v.809c.385.173.778.26 1.163.26.204 0 .392-.032.573-.08a4.313 4.313 0 00.644-2.262l-.015-.33a1.807 1.807 0 00-.967-.252 3 3 0 00-.448.032V8.944h1.132a4.423 4.423 0 00-.362-.723h-1.587v2.475c.315-.078.629-.133.943-.133z"></path>
</svg>
