<svg width="24" height="16" viewBox="0 0 24 16" fill="none" xmlns="http://www.w3.org/2000/svg">
<path d="M0 2C0 0.895431 0.895431 0 2 0H22C23.1046 0 24 0.895431 24 2V14C24 15.1046 23.1046 16 22 16H2C0.89543 16 0 15.1046 0 14V2Z" fill="#CCFAFF"/>
<path fill-rule="evenodd" clip-rule="evenodd" d="M20.331 5.45809C20.0522 5.45809 19.7446 5.61356 19.6219 5.89298L18.3184 8.8811L17.8488 5.89298C17.7937 5.61356 17.6037 5.45809 17.3034 5.45809L15.652 5.45809L17.0644 10.4206C17.0904 10.5159 17.0953 10.6213 17.0764 10.7323C17.0024 11.1464 16.6069 11.4824 16.1924 11.4824L15.2677 11.4824C15.0329 11.4824 14.8782 11.6279 14.8026 11.9571L14.5972 13.187L16.2258 13.187C17.0754 13.187 18.0733 12.7601 18.7389 11.5797L22 5.45809L20.331 5.45809Z" fill="#2F3842"/>
<path fill-rule="evenodd" clip-rule="evenodd" d="M4.2998 3.97717C4.78746 3.97717 5.02309 4.17169 4.93741 4.66061L4.79675 5.45713L5.91728 5.45713L5.67046 6.8563L4.54946 6.8563L4.24405 8.58875C4.13851 9.19233 4.73595 9.27266 5.07869 9.27266C5.14705 9.27266 5.20376 9.27124 5.24439 9.26888L4.97033 10.8292C4.88574 10.8382 4.79848 10.8498 4.61404 10.8498C3.76333 10.8498 2.15404 10.622 2.47048 8.82675L2.817 6.8563L2 6.8563L2.24587 5.45713L3.05484 5.45713L3.31521 3.97717L4.2998 3.97717Z" fill="#2F3842"/>
<path fill-rule="evenodd" clip-rule="evenodd" d="M13.7158 5.52124L13.428 7.15257C13.7829 7.33387 14.0261 7.70213 14.0261 8.1274C14.0261 8.68814 13.6057 9.14775 13.0645 9.21375L12.7768 10.8448C12.8276 10.8481 12.8792 10.8498 12.9307 10.8498C14.4351 10.8498 15.6536 9.63052 15.6536 8.1274C15.6536 6.89851 14.8375 5.85863 13.7158 5.52124Z" fill="#00A6B6"/>
<path fill-rule="evenodd" clip-rule="evenodd" d="M12.4344 9.10275C12.0798 8.9224 11.836 8.55241 11.836 8.1276C11.836 7.57033 12.2574 7.10741 12.7984 7.04236L13.0857 5.41118C13.0347 5.40803 12.9827 5.40567 12.9315 5.40567C11.4282 5.40567 10.2091 6.62574 10.2091 8.1276C10.2091 9.35713 11.0255 10.3976 12.1473 10.735L12.4344 9.10275Z" fill="#00A6B6"/>
<path fill-rule="evenodd" clip-rule="evenodd" d="M6.56606 5.45807L7.52892 5.45807C8.01673 5.45807 8.25142 5.65306 8.16542 6.14213L8.06005 6.73374C8.41885 6.00557 9.19695 5.40483 9.99506 5.40483C10.0998 5.40483 10.2006 5.42562 10.2006 5.42562L9.88937 7.18989C9.88937 7.18989 9.74966 7.15744 9.53166 7.15744C9.10639 7.15744 8.38704 7.29227 7.98665 8.09148C7.89119 8.28852 7.81779 8.5281 7.76692 8.81681L7.41851 10.7989L5.62494 10.7989L6.56606 5.45807Z" fill="#2F3842"/>
</svg>
