<svg width="128" height="56" viewBox="0 0 128 56" fill="none" xmlns="http://www.w3.org/2000/svg">
<path d="M121.653 52.3851V41.7448H123.655V43.435H123.766C123.96 42.8624 124.302 42.4121 124.791 42.0842C125.286 41.7517 125.844 41.5854 126.468 41.5854C126.597 41.5854 126.749 41.5901 126.925 41.5993C127.105 41.6085 127.246 41.6201 127.348 41.6339V43.6151C127.264 43.5921 127.117 43.5667 126.904 43.5389C126.692 43.5066 126.479 43.4905 126.267 43.4905C125.777 43.4905 125.341 43.5944 124.958 43.8022C124.579 44.0054 124.279 44.2894 124.057 44.6542C123.835 45.0145 123.725 45.4255 123.725 45.8873V52.3851H121.653Z" fill="white"/>
<path d="M114.79 52.5996C113.742 52.5996 112.839 52.3756 112.082 51.9276C111.329 51.475 110.747 50.84 110.336 50.0226C109.93 49.2006 109.727 48.2377 109.727 47.1339C109.727 46.044 109.93 45.0835 110.336 44.2522C110.747 43.4209 111.32 42.7721 112.054 42.3056C112.793 41.8392 113.657 41.606 114.645 41.606C115.245 41.606 115.827 41.7052 116.391 41.9038C116.954 42.1024 117.46 42.4141 117.908 42.839C118.356 43.2639 118.709 43.8158 118.968 44.4946C119.226 45.1689 119.356 45.9886 119.356 46.9538V47.6881H110.897V46.1364H117.326C117.326 45.5915 117.215 45.1089 116.993 44.6886C116.772 44.2637 116.46 43.9289 116.058 43.6841C115.661 43.4394 115.195 43.317 114.659 43.317C114.077 43.317 113.569 43.4602 113.135 43.7465C112.705 44.0282 112.373 44.3977 112.137 44.8549C111.906 45.3074 111.791 45.7993 111.791 46.3304V47.5426C111.791 48.2538 111.916 48.8588 112.165 49.3576C112.419 49.8564 112.772 50.2374 113.225 50.5006C113.677 50.7592 114.206 50.8885 114.811 50.8885C115.204 50.8885 115.562 50.8331 115.885 50.7223C116.208 50.6068 116.488 50.4359 116.723 50.2097C116.959 49.9834 117.139 49.704 117.263 49.3715L119.224 49.7247C119.067 50.302 118.785 50.8077 118.379 51.2418C117.977 51.6713 117.471 52.0061 116.862 52.2463C116.257 52.4818 115.566 52.5996 114.79 52.5996Z" fill="white"/>
<path d="M101.977 52.5927C101.118 52.5927 100.351 52.3733 99.6768 51.9346C99.0071 51.4912 98.4806 50.8608 98.0973 50.0434C97.7186 49.2214 97.5293 48.2354 97.5293 47.0855C97.5293 45.9355 97.721 44.9519 98.1043 44.1344C98.4922 43.317 99.0233 42.6913 99.6975 42.2571C100.372 41.823 101.136 41.606 101.99 41.606C102.651 41.606 103.182 41.7168 103.584 41.9385C103.99 42.1555 104.304 42.4095 104.526 42.7005C104.752 42.9914 104.928 43.2478 105.052 43.4694H105.177V38.1978H107.248V52.3848H105.226V50.7292H105.052C104.928 50.9555 104.748 51.2141 104.512 51.5051C104.281 51.796 103.962 52.05 103.556 52.2671C103.15 52.4841 102.623 52.5927 101.977 52.5927ZM102.434 50.8262C103.03 50.8262 103.533 50.6692 103.944 50.3552C104.36 50.0365 104.674 49.5955 104.886 49.032C105.103 48.4686 105.212 47.8128 105.212 47.0647C105.212 46.3258 105.105 45.6792 104.893 45.125C104.681 44.5709 104.369 44.1391 103.958 43.8296C103.547 43.5202 103.039 43.3655 102.434 43.3655C101.81 43.3655 101.291 43.5272 100.875 43.8504C100.46 44.1737 100.146 44.6147 99.9331 45.1735C99.7253 45.7323 99.6213 46.3627 99.6213 47.0647C99.6213 47.7759 99.7276 48.4155 99.94 48.9835C100.152 49.5516 100.466 50.0019 100.882 50.3344C101.302 50.6623 101.82 50.8262 102.434 50.8262Z" fill="white"/>
<path d="M93.1353 52.385V41.7447H95.2066V52.385H93.1353ZM94.1813 40.1029C93.8211 40.1029 93.5117 39.9829 93.2531 39.7427C92.9991 39.4979 92.8721 39.207 92.8721 38.8699C92.8721 38.5281 92.9991 38.2372 93.2531 37.997C93.5117 37.7523 93.8211 37.6299 94.1813 37.6299C94.5415 37.6299 94.8487 37.7523 95.1027 37.997C95.3613 38.2372 95.4906 38.5281 95.4906 38.8699C95.4906 39.207 95.3613 39.4979 95.1027 39.7427C94.8487 39.9829 94.5415 40.1029 94.1813 40.1029Z" fill="white"/>
<path d="M91.1887 41.7446L87.3302 52.385H85.1135L81.248 41.7446H83.4717L86.1664 49.9327H86.2773L88.9651 41.7446H91.1887Z" fill="white"/>
<path d="M75.1767 52.5996C74.1792 52.5996 73.3087 52.371 72.5651 51.9138C71.8216 51.4566 71.2443 50.8169 70.8333 49.9949C70.4223 49.1729 70.2168 48.2123 70.2168 47.1132C70.2168 46.0094 70.4223 45.0442 70.8333 44.2175C71.2443 43.3909 71.8216 42.749 72.5651 42.2918C73.3087 41.8346 74.1792 41.606 75.1767 41.606C76.1743 41.606 77.0448 41.8346 77.7883 42.2918C78.5319 42.749 79.1091 43.3909 79.5202 44.2175C79.9312 45.0442 80.1367 46.0094 80.1367 47.1132C80.1367 48.2123 79.9312 49.1729 79.5202 49.9949C79.1091 50.8169 78.5319 51.4566 77.7883 51.9138C77.0448 52.371 76.1743 52.5996 75.1767 52.5996ZM75.1837 50.8608C75.8302 50.8608 76.3659 50.6899 76.7908 50.3482C77.2157 50.0065 77.5297 49.5516 77.7329 48.9835C77.9407 48.4155 78.0446 47.7897 78.0446 47.1062C78.0446 46.4274 77.9407 45.8039 77.7329 45.2359C77.5297 44.6632 77.2157 44.2037 76.7908 43.8573C76.3659 43.511 75.8302 43.3378 75.1837 43.3378C74.5325 43.3378 73.9922 43.511 73.5627 43.8573C73.1378 44.2037 72.8215 44.6632 72.6136 45.2359C72.4104 45.8039 72.3088 46.4274 72.3088 47.1062C72.3088 47.7897 72.4104 48.4155 72.6136 48.9835C72.8215 49.5516 73.1378 50.0065 73.5627 50.3482C73.9922 50.6899 74.5325 50.8608 75.1837 50.8608Z" fill="white"/>
<path d="M63.5889 52.3851V41.7448H65.5909V43.435H65.7017C65.8957 42.8624 66.2374 42.4121 66.7269 42.0842C67.2211 41.7517 67.7799 41.5854 68.4033 41.5854C68.5326 41.5854 68.685 41.5901 68.8605 41.5993C69.0406 41.6085 69.1815 41.6201 69.2831 41.6339V43.6151C69.2 43.5921 69.0522 43.5667 68.8398 43.5389C68.6273 43.5066 68.4149 43.4905 68.2024 43.4905C67.7129 43.4905 67.2765 43.5944 66.8932 43.8022C66.5145 44.0054 66.2143 44.2894 65.9926 44.6542C65.771 45.0145 65.6601 45.4255 65.6601 45.8873V52.3851H63.5889Z" fill="white"/>
<path d="M51.2773 52.3849V38.1978H56.3343C57.438 38.1978 58.3524 38.3986 59.0775 38.8004C59.8025 39.2022 60.3452 39.7518 60.7054 40.4491C61.0656 41.1419 61.2457 41.9223 61.2457 42.7905C61.2457 43.6634 61.0633 44.4485 60.6985 45.1458C60.3382 45.8386 59.7933 46.3881 59.0636 46.7945C58.3386 47.1963 57.4265 47.3972 56.3273 47.3972H52.8498V45.5822H56.1334C56.8307 45.5822 57.3965 45.4622 57.8306 45.222C58.2647 44.9773 58.5833 44.6448 58.7865 44.2245C58.9897 43.8042 59.0913 43.3263 59.0913 42.7905C59.0913 42.2548 58.9897 41.7792 58.7865 41.3635C58.5833 40.9479 58.2624 40.6223 57.8236 40.3868C57.3895 40.1513 56.8169 40.0335 56.1057 40.0335H53.4179V52.3849H51.2773Z" fill="white"/>
<path d="M36.2851 46.0672V52.3849H34.2139V38.1978H36.2574V43.4764H36.389C36.6384 42.9037 37.0194 42.4488 37.532 42.1117C38.0447 41.7745 38.7143 41.606 39.541 41.606C40.2706 41.606 40.9079 41.7561 41.4529 42.0563C42.0025 42.3564 42.4273 42.8044 42.7275 43.4002C43.0323 43.9913 43.1847 44.7302 43.1847 45.6169V52.3849H41.1134V45.8663C41.1134 45.0858 40.9126 44.4808 40.5108 44.0513C40.109 43.6172 39.5502 43.4002 38.8344 43.4002C38.3448 43.4002 37.9061 43.5041 37.5182 43.7119C37.1349 43.9197 36.8324 44.2245 36.6107 44.6263C36.3937 45.0234 36.2851 45.5037 36.2851 46.0672Z" fill="white"/>
<path d="M27.6279 52.5996C26.5981 52.5996 25.7114 52.3664 24.9678 51.8999C24.2289 51.4289 23.6609 50.78 23.2637 49.9533C22.8666 49.1267 22.668 48.18 22.668 47.1132C22.668 46.0325 22.8712 45.0788 23.2776 44.2522C23.684 43.4209 24.2566 42.7721 24.9955 42.3056C25.7344 41.8392 26.605 41.606 27.6071 41.606C28.4153 41.606 29.1358 41.756 29.7684 42.0562C30.4011 42.3518 30.9114 42.7674 31.2994 43.3031C31.6919 43.8389 31.9251 44.4646 31.999 45.1804H29.9832C29.8724 44.6817 29.6184 44.2522 29.2212 43.892C28.8286 43.5317 28.3022 43.3516 27.6418 43.3516C27.0645 43.3516 26.5588 43.504 26.1247 43.8088C25.6952 44.109 25.3604 44.5385 25.1202 45.0973C24.8801 45.6515 24.76 46.3073 24.76 47.0647C24.76 47.8405 24.8778 48.5102 25.1133 49.0736C25.3488 49.637 25.6813 50.0734 26.1108 50.3828C26.5449 50.6923 27.0553 50.847 27.6418 50.847C28.0343 50.847 28.3899 50.7754 28.7086 50.6322C29.0318 50.4844 29.302 50.2743 29.5191 50.0018C29.7407 49.7294 29.8954 49.4015 29.9832 49.0182H31.999C31.9251 49.7063 31.7012 50.3205 31.3271 50.8608C30.953 51.4012 30.4519 51.826 29.8239 52.1354C29.2004 52.4449 28.4684 52.5996 27.6279 52.5996Z" fill="white"/>
<path d="M16.2826 52.5996C15.2343 52.5996 14.3314 52.3756 13.574 51.9276C12.8213 51.475 12.2394 50.84 11.8284 50.0226C11.422 49.2006 11.2188 48.2377 11.2188 47.1339C11.2188 46.044 11.422 45.0835 11.8284 44.2522C12.2394 43.4209 12.812 42.7721 13.5463 42.3056C14.2852 41.8392 15.1488 41.606 16.1371 41.606C16.7375 41.606 17.3194 41.7052 17.8828 41.9038C18.4462 42.1024 18.9519 42.4141 19.3999 42.839C19.8478 43.2639 20.2011 43.8158 20.4598 44.4946C20.7184 45.1689 20.8477 45.9886 20.8477 46.9538V47.6881H12.3895V46.1364H18.818C18.818 45.5915 18.7072 45.1089 18.4855 44.6886C18.2638 44.2637 17.9521 43.9289 17.5503 43.6841C17.1531 43.4394 16.6867 43.317 16.151 43.317C15.5691 43.317 15.0611 43.4602 14.627 43.7465C14.1975 44.0282 13.865 44.3977 13.6294 44.8549C13.3985 45.3074 13.2831 45.7993 13.2831 46.3304V47.5426C13.2831 48.2538 13.4078 48.8588 13.6572 49.3576C13.9112 49.8564 14.2644 50.2374 14.717 50.5006C15.1696 50.7592 15.6984 50.8885 16.3034 50.8885C16.6959 50.8885 17.0538 50.8331 17.3771 50.7223C17.7004 50.6068 17.9798 50.4359 18.2153 50.2097C18.4508 49.9834 18.631 49.704 18.7556 49.3715L20.7161 49.7247C20.559 50.302 20.2773 50.8077 19.8709 51.2418C19.4692 51.6713 18.9635 52.0061 18.3539 52.2463C17.7489 52.4818 17.0585 52.5996 16.2826 52.5996Z" fill="white"/>
<path d="M0 40.0404V38.1978H10.9798V40.0404H6.55322V52.3849H4.41961V40.0404H0Z" fill="white"/>
<path d="M47.1016 4.06982H51.9238L60.1235 18.9023L68.323 4.06984H73.0409V28.4424H69.1065V9.76265L61.9166 22.6975H58.2259L51.036 9.76265V28.4424H47.1016V4.06982Z" fill="white"/>
<path d="M85.7319 28.8777C83.9097 28.8777 82.3081 28.4744 80.9271 27.6678C79.5459 26.8612 78.4694 25.7441 77.6977 24.3166C76.9258 22.889 76.5399 21.2525 76.54 19.4072C76.54 17.5388 76.9172 15.8849 77.6716 14.4457C78.426 13.0067 79.4734 11.8809 80.8139 11.0682C82.1545 10.256 83.6952 9.84983 85.436 9.84961C87.1652 9.84961 88.6537 10.2587 89.9014 11.0769C91.1488 11.8953 92.1092 13.0414 92.7825 14.5153C93.4555 15.9893 93.7921 17.7186 93.7923 19.7032V20.7824H80.4396C80.6834 22.2682 81.284 23.4375 82.2415 24.2903C83.199 25.1434 84.4089 25.5699 85.8712 25.5698C87.0433 25.5698 88.0531 25.3958 88.9004 25.0476C89.7475 24.6994 90.5425 24.1714 91.2855 23.4635L93.3745 26.0225C91.2968 27.9261 88.7493 28.8779 85.7319 28.8777ZM88.6045 14.4194C87.7803 13.5781 86.7009 13.1574 85.3664 13.1572C84.0664 13.1572 82.9784 13.5867 82.1022 14.4457C81.2258 15.3045 80.6716 16.4593 80.4396 17.91H90.0146C89.8984 16.4244 89.4284 15.2609 88.6045 14.4194Z" fill="white"/>
<path d="M98.5625 13.5058H94.9414V10.2851H98.5625V4.95801H102.358V10.2851H107.859V13.5058H102.358V21.6705C102.358 23.0283 102.59 23.9974 103.054 24.5777C103.518 25.1583 104.313 25.4484 105.439 25.4482C105.938 25.4482 106.361 25.4279 106.71 25.3873C107.058 25.3468 107.441 25.2916 107.859 25.2218V28.4076C107.382 28.5455 106.896 28.6503 106.405 28.7211C105.843 28.8038 105.276 28.8446 104.708 28.843C100.611 28.843 98.5623 26.603 98.5625 22.1232V13.5058Z" fill="white"/>
<path d="M127.636 28.4424H123.91V25.9007C123.249 26.8525 122.407 27.5865 121.386 28.1029C120.365 28.6191 119.204 28.8774 117.904 28.8777C116.303 28.8777 114.884 28.4685 113.648 27.6502C112.412 26.832 111.44 25.7063 110.732 24.273C110.024 22.8396 109.67 21.2003 109.67 19.355C109.67 17.4981 110.03 15.8558 110.749 14.4281C111.469 13.0007 112.464 11.8808 113.735 11.0682C115.006 10.256 116.465 9.84983 118.113 9.84961C119.355 9.84961 120.469 10.0905 121.456 10.5722C122.429 11.043 123.272 11.7453 123.91 12.6176V10.2849H127.636V28.4424ZM123.841 16.6392C123.434 15.6062 122.793 14.7909 121.917 14.1931C121.041 13.5954 120.028 13.2966 118.879 13.2966C117.254 13.2966 115.96 13.8421 114.997 14.933C114.034 16.024 113.552 17.498 113.552 19.355C113.552 21.2237 114.016 22.7035 114.945 23.7943C115.873 24.8853 117.132 25.4307 118.723 25.4307C119.895 25.4307 120.939 25.1289 121.856 24.5253C122.773 23.9221 123.434 23.1097 123.841 22.0881V16.6392Z" fill="white"/>
<path d="M28.0917 3.24609C24.9279 3.24609 22.4547 5.62898 20.216 8.65597C17.1394 4.73874 14.5665 3.24609 11.4875 3.24609C5.21011 3.24609 0.400391 11.4155 0.400391 20.0624C0.400391 25.4734 3.01813 28.8862 7.40278 28.8862C10.5586 28.8862 12.8282 27.3984 16.8631 20.3454C16.8631 20.3454 18.545 17.3752 19.7021 15.3292C20.1075 15.9838 20.5346 16.6892 20.9832 17.4454L22.8752 20.6283C26.5609 26.796 28.6145 28.8862 32.3355 28.8862C36.6071 28.8862 38.9843 25.4267 38.9843 19.9033C38.9843 10.8497 34.0661 3.24609 28.0917 3.24609ZM13.7863 18.4356C10.515 23.5636 9.38325 24.713 7.56192 24.713C5.68755 24.713 4.57353 23.0675 4.57353 20.1332C4.57353 13.8558 7.70339 7.43692 11.4345 7.43692C13.4549 7.43692 15.1434 8.6038 17.7297 12.3063C15.2739 16.0731 13.7863 18.4356 13.7863 18.4356ZM26.1327 17.7901L23.8705 14.0172C23.2583 13.0215 22.6699 12.105 22.1054 11.2678C24.1443 8.12084 25.8262 6.55279 27.8264 6.55279C31.9819 6.55279 35.3062 12.671 35.3062 20.1862C35.3062 23.0508 34.368 24.713 32.4239 24.713C30.5607 24.713 29.6705 23.4824 26.1327 17.7901Z" fill="white"/>
</svg>
